<!-- Save as urlbolt-icon.svg -->
<svg xmlns="http://www.w3.org/2000/svg" viewBox="0 0 64 64" width="128" height="128" role="img" aria-labelledby="title desc">
  <title id="title">URLBolt</title>
  <desc id="desc">Minimal chain link with a lightning bolt for a fast URL shortener</desc>

  <!-- Transparent background by default -->
  <!-- Left link -->
  <path d="M20 28c-3 3-3 7.9 0 10.9l6 6c3 3 7.9 3 10.9 0 1-1 1-2.6 0-3.6-1-1-2.6-1-3.6 0-2-2-5.2-2-7.2 0l-6-6c-2-2-2-5.2 0-7.2 1-1 1-2.6 0-3.6-1-1-2.6-1-3.6 0z" fill="#2563eb"></path>

  <!-- Right link -->
  <path d="M44 36c3-3 3-7.9 0-10.9l-6-6c-3-3-7.9-3-10.9 0-1 1-1 2.6 0 3.6 1 1 2.6 1 3.6 0 2-2 5.2-2 7.2 0l6 6c2 2 2 5.2 0 7.2-1 1-1 2.6 0 3.6 1 1 2.6 1 3.6 0z" fill="#60a5fa"></path>

  <!-- Bolt -->
  <path d="M30 12 L38 12 L32 30 L40 20 L30 20 L34 8 Z" fill="#f59e0b"></path>

  <!-- Small accent dot -->
  <circle cx="50" cy="14" r="3" fill="#fde68a"></circle>
</svg>
